# xmcd
#
# Track frame offsets:
#	150
#	31917
#	55787
#	79117
#	100005
#	120125
#	129895
#	153082
#	176267
#	200450
#	222772
#	240857
#	264682
#
# Disc length: 3794 seconds
#
# Revision: 0
# Processed by: cddbd v1.4PL0 Copyright (c) Steve Scherf et al.
# Submitted via: dBpowerAMP V4.0
#
DISCID=910ed00d
DTITLE=Ramana Gogula - Thammudu - Premaku Velayera
DYEAR=1900
DGENRE=Blues
TTITLE0=Thammudu - Made In Andhra
TTITLE1=Thammudu - Vayyari Bhama
TTITLE2=Thammudu - Edolavundi
TTITLE3=Thammudu - Pedavi Datani
TTITLE4=Thammudu - Travelling Soldier
TTITLE5=Thammudu - College Blues
TTITLE6=Thammudu - Kala Kalalu
TTITLE7=Premaku Velayera - Ippati Kippudu
TTITLE8=Premaku Velayera - Thalathala Tarakalaye
TTITLE9=Premaku Velayera - Chinna Gounu
TTITLE10=Premaku Velayera - Kannu Kannu
TTITLE11=Premaku Velayera - Pada Pada Padara
TTITLE12=Premaku Velayera - Inter Chadive
EXTD=
EXTT0=
EXTT1=
EXTT2=
EXTT3=
EXTT4=
EXTT5=
EXTT6=
EXTT7=
EXTT8=
EXTT9=
EXTT10=
EXTT11=
EXTT12=
PLAYORDER=
